<?xml version="1.0" encoding="UTF-8"?>
<svg id="Capa_1" xmlns="http://www.w3.org/2000/svg" version="1.1" viewBox="0 0 28 29">
  <!-- Generator: Adobe Illustrator 29.0.0, SVG Export Plug-In . SVG Version: 2.1.0 Build 186)  -->
  <defs>
    <style>
      .st0 {
        display: none;
      }
    </style>
  </defs>
  <path d="M16,7.3c1.9.2,3.9,1.1,4.8,2.8,1.6,3,1,6.9,2.6,9.8s2.9,2.6,1.3,4H5.4c-2.2-1.7.8-3.3,1.6-5.3s.5-3.7.9-5.5c.7-3,2-5.4,5.4-5.8-1.3-4.1,4.4-4,2.6,0Z"/>
  <path d="M17.6,25c-.4,2.2-2.7,3.1-4.5,1.8s-1.6-1.6-.6-1.8c1.6-.2,3.5.3,5.2,0Z"/>
  <g class="st0">
    <path d="M23.9,14.7h-1c.3-3.4-1.7-6.7-4.7-8.2v-.7c3.7,1.1,5.9,5.3,5.7,8.9Z"/>
    <path d="M11.2,5.8c0,1.1-1.3,1.5-2,2.2-2,1.8-2.6,4.1-2.8,6.7h-.7c-.3-3.6,1.9-7.9,5.5-8.9Z"/>
    <path d="M26.3,14c-.6.7-1-2.7-1.1-3.1-.8-3.1-2.5-4.7-5.1-6.4s-.5-.6-.3-.8,2.2,1.2,2.5,1.4c2.5,2.1,4.1,5.5,4,8.9Z"/>
    <path d="M4.2,14c-1.2,0-.6-2.1-.4-2.9.7-3.2,3-6.1,6-7.4l.2.5c-3.7,2-6,5.6-5.9,9.8Z"/>
  </g>
</svg>